<svg xmlns="http://www.w3.org/2000/svg" viewBox="0 0 150 150"><defs><style>.cls-1{fill:#e8e8e8;}.cls-2{opacity:0.8;}.cls-3{fill:#fff;}</style></defs><title>Asset 2</title><g id="Layer_2" data-name="Layer 2"><g id="Layer_1-2" data-name="Layer 1"><rect class="cls-1" width="150" height="150"/><g class="cls-2"><path class="cls-3" d="M72.09,83.09s.31-13.46-9.1-22.44C52.13,50.29,50.11,52,42.12,49.12a9.12,9.12,0,0,1-3.47-2.46s.65,7.84,9.28,15.78,13.69,9.43,18,13.42A32.57,32.57,0,0,1,72.09,83.09Z"/><path class="cls-3" d="M70.63,88s-1.69-7.26-7.93-11C57.49,73.91,52.55,72.56,51.27,72a12.5,12.5,0,0,1-2.34-1.49s1.22,5.25,7.18,9.44,7.67,3.9,10.31,5.37A31.81,31.81,0,0,1,70.63,88Z"/><path class="cls-3" d="M77.28,85.25s3.06-15.92-6.6-29.38S53.32,39.36,48.74,33.94A46.22,46.22,0,0,1,42,23.59s-2.17,15.67,7.25,28.54S65.15,67.51,70.38,73.37A33.38,33.38,0,0,1,77.28,85.25Z"/><path class="cls-3" d="M80.23,74.76a15.18,15.18,0,0,0,5.09-8.11c1.38-5.42,2.51-10.18,5.85-11,6.35-1.59,13.58,3.17,13.58,3.17l-.68.25s-9.27-3.2-11.77-.56C89,62,90.54,65,85.75,71A12.67,12.67,0,0,1,80.23,74.76Z"/><path class="cls-3" d="M68.55,93.44s-.89,8.67-5.27,13.9-5,5-7.29,7.94a25.89,25.89,0,0,0-3.55,6.16s-1.62-8,2.94-13.7,7.61-7,9.49-9.07A34,34,0,0,0,68.55,93.44Z"/><path class="cls-3" d="M66.83,89a28.14,28.14,0,0,1-8.23,19.22c-6.88,6.68-9.22,7.25-12.17,10.94a39.82,39.82,0,0,0-4.6,7.25,27.35,27.35,0,0,1,5.24-14.93c5.32-7.29,10.63-10.59,14.83-14.82S66.83,89,66.83,89Z"/><polygon class="cls-3" points="103.5 58.15 111.35 57.92 104.08 59.05 103.5 58.15"/><path class="cls-3" d="M82.26,91.81c4.24-7.64,4.43-14.69,9.76-22.38,1.93-2.78,4.06-6,15-10a26.52,26.52,0,0,1,3.77-1S102.56,62.88,100,68.2s.2,16.7-13.36,26.37c-6.05,4.32-15.87,8.08-15.87,8.08A27.2,27.2,0,0,0,82.26,91.81Z"/><circle class="cls-3" cx="95.2" cy="60.65" r="1.6" transform="translate(-8.75 16.64) rotate(-9.55)"/></g></g></g></svg>