<svg xmlns="http://www.w3.org/2000/svg" xmlns:xlink="http://www.w3.org/1999/xlink" viewBox="0 0 123 37"><defs><style>.cls-1{fill:url(#linear-gradient);}.cls-2{fill:#fff;}</style><linearGradient id="linear-gradient" y1="18.5" x2="123" y2="18.5" gradientUnits="userSpaceOnUse"><stop offset="0" stop-color="#282261"/><stop offset="1" stop-color="#c71783"/></linearGradient></defs><title>Asset 6</title><g id="Layer_2" data-name="Layer 2"><g id="Layer_1-2" data-name="Layer 1"><rect class="cls-1" width="123" height="37" rx="18.5" ry="18.5"/><path class="cls-2" d="M43.43,14.65h1.15L41.42,23H40.17L37,14.65h1.16l2.63,7.21Z"/><path class="cls-2" d="M45.6,14.63a.73.73,0,1,1,.74.74A.73.73,0,0,1,45.6,14.63Zm.18,1.81h1.09V23H45.78Z"/><path class="cls-2" d="M51.58,23.12a3.17,3.17,0,0,1-3.25-3.41,3.13,3.13,0,0,1,3.25-3.38,3,3,0,0,1,3.15,3.14,5.77,5.77,0,0,1,0,.66H49.44a2.07,2.07,0,0,0,2.13,2.06A1.8,1.8,0,0,0,53.42,21H54.6A3,3,0,0,1,51.58,23.12Zm-2.12-3.87H53.6a1.93,1.93,0,0,0-2.08-2A2,2,0,0,0,49.45,19.24Z"/><path class="cls-2" d="M55.4,16.44h1.12L58,22l1.63-5.52h1.12L62.36,22l1.49-5.53h1.08L62.88,23H61.75l-1.58-5.22L58.58,23H57.46Z"/><path class="cls-2" d="M74.16,21.15H70.51L69.84,23H68.69l3-8.31H73L76,23H74.83ZM72.34,16l-1.51,4.22h3Z"/><path class="cls-2" d="M77.31,14.13H78.4V23H77.31Z"/><path class="cls-2" d="M83.81,16.33a3.11,3.11,0,0,1,3.12,3.37,3.16,3.16,0,0,1-3.12,3.42,2.75,2.75,0,0,1-2.46-1.32V23H80.26V14.13h1.09v3.53A2.78,2.78,0,0,1,83.81,16.33Zm-.23.95a2.26,2.26,0,0,0-2.23,2.44,2.24,2.24,0,1,0,4.46,0A2.22,2.22,0,0,0,83.58,17.28Z"/><path class="cls-2" d="M94.2,23H93.11V22A2.42,2.42,0,0,1,91,23.1a2.56,2.56,0,0,1-2.7-2.82V16.44h1.08v3.71a1.76,1.76,0,0,0,1.83,2c1.13,0,1.88-.7,1.88-2.11V16.44H94.2Z"/><path class="cls-2" d="M105.54,19.29c0-1.34-.72-2-1.8-2s-1.86.71-1.86,2.12V23H100.8V19.29c0-1.34-.72-2-1.8-2s-1.86.71-1.86,2.12V23H96V16.44h1.09v.95a2.38,2.38,0,0,1,2.08-1.07,2.47,2.47,0,0,1,2.41,1.46A2.43,2.43,0,0,1,104,16.32a2.54,2.54,0,0,1,2.66,2.82V23h-1.08Z"/><path class="cls-2" d="M16.38,18.5V12.74a.73.73,0,0,1,1.1-.63l5,2.88,5,2.88a.73.73,0,0,1,0,1.26l-5,2.88-5,2.88a.73.73,0,0,1-1.1-.63Z"/></g></g></svg>