<svg xmlns="http://www.w3.org/2000/svg" viewBox="0 0 123.75 37.75"><defs><style>.cls-1{fill:none;stroke:#a9a9a9;stroke-miterlimit:10;stroke-width:0.75px;}.cls-2{fill:#a9a9a9;}</style></defs><title>Asset 11</title><g id="Layer_2" data-name="Layer 2"><g id="Layer_1-2" data-name="Layer 1"><rect class="cls-1" x="0.38" y="0.38" width="123" height="37" rx="18.5" ry="18.5"/><path class="cls-2" d="M43.8,15H45L41.8,23.38H40.54L37.39,15h1.16l2.63,7.21Z"/><path class="cls-2" d="M46,15a.73.73,0,1,1,.74.74A.73.73,0,0,1,46,15Zm.18,1.81h1.09v6.57H46.16Z"/><path class="cls-2" d="M52,23.49a3.17,3.17,0,0,1-3.25-3.41A3.13,3.13,0,0,1,52,16.7a3,3,0,0,1,3.15,3.14,5.77,5.77,0,0,1,0,.66H49.82A2.07,2.07,0,0,0,52,22.57a1.8,1.8,0,0,0,1.85-1.21H55A3,3,0,0,1,52,23.49Zm-2.12-3.87H54a1.93,1.93,0,0,0-2.08-2A2,2,0,0,0,49.83,19.62Z"/><path class="cls-2" d="M55.77,16.81h1.12l1.51,5.52L60,16.81h1.12l1.59,5.53,1.49-5.53H65.3l-2.05,6.57H62.13l-1.58-5.22L59,23.38H57.83Z"/><path class="cls-2" d="M74.54,21.52H70.89l-.67,1.86H69.07l3-8.31h1.26l3,8.31H75.21Zm-1.82-5.11L71.2,20.64h3Z"/><path class="cls-2" d="M77.68,14.51h1.09v8.88H77.68Z"/><path class="cls-2" d="M84.18,16.7a3.11,3.11,0,0,1,3.12,3.37,3.16,3.16,0,0,1-3.12,3.42,2.75,2.75,0,0,1-2.46-1.32v1.21H80.63V14.51h1.09V18A2.78,2.78,0,0,1,84.18,16.7Zm-.23.95a2.26,2.26,0,0,0-2.23,2.44,2.24,2.24,0,1,0,4.46,0A2.22,2.22,0,0,0,84,17.65Z"/><path class="cls-2" d="M94.57,23.38H93.48v-1a2.42,2.42,0,0,1-2.1,1.07,2.56,2.56,0,0,1-2.7-2.82V16.81h1.08v3.71a1.76,1.76,0,0,0,1.83,2c1.13,0,1.88-.7,1.88-2.11V16.81h1.09Z"/><path class="cls-2" d="M105.91,19.67c0-1.34-.72-2-1.8-2s-1.86.71-1.86,2.12v3.62h-1.08V19.67c0-1.34-.72-2-1.8-2s-1.86.71-1.86,2.12v3.62H96.42V16.81h1.09v.95a2.38,2.38,0,0,1,2.08-1.07A2.47,2.47,0,0,1,102,18.16a2.43,2.43,0,0,1,2.33-1.46A2.54,2.54,0,0,1,107,19.51v3.87h-1.08Z"/><path class="cls-2" d="M16.76,18.88V13.11a.73.73,0,0,1,1.1-.63l5,2.88,5,2.88a.73.73,0,0,1,0,1.26l-5,2.88-5,2.88a.73.73,0,0,1-1.1-.63Z"/></g></g></svg>