<svg xmlns="http://www.w3.org/2000/svg" xmlns:xlink="http://www.w3.org/1999/xlink" viewBox="0 0 31.27 31.27"><defs><style>.cls-1{stroke:#fffdfd;stroke-miterlimit:10;stroke-width:1.27px;fill:url(#Degradado_sin_nombre_100);}.cls-2{fill:#fff;}</style><radialGradient id="Degradado_sin_nombre_100" cx="-131.36" cy="104.42" r="251.78" gradientTransform="translate(37.34 10.68) scale(0.32 0.32)" gradientUnits="userSpaceOnUse"><stop offset="0" stop-color="#f4eb4a"/><stop offset="0.11" stop-color="#f3e84b"/><stop offset="0.17" stop-color="#f2e04d"/><stop offset="0.23" stop-color="#eed150"/><stop offset="0.28" stop-color="#eabc55"/><stop offset="0.33" stop-color="#e4a15c"/><stop offset="0.37" stop-color="#dd8064"/><stop offset="0.41" stop-color="#d5596d"/><stop offset="0.45" stop-color="#cc2e78"/><stop offset="0.46" stop-color="#c82e7b"/><stop offset="0.73" stop-color="#6b2ebe"/><stop offset="0.91" stop-color="#312ee9"/><stop offset="1" stop-color="#1a2ef9"/></radialGradient></defs><title>instagram</title><g id="Layer_2" data-name="Layer 2"><g id="Layer_1-2" data-name="Layer 1"><circle class="cls-1" cx="15.63" cy="15.63" r="15"/><path class="cls-2" d="M18.15,21.27H13.63A3.64,3.64,0,0,1,10,17.63v-4A3.64,3.64,0,0,1,13.63,10h4.52a3.64,3.64,0,0,1,3.64,3.64v4A3.64,3.64,0,0,1,18.15,21.27ZM13.63,10.81a2.83,2.83,0,0,0-2.83,2.83v4a2.83,2.83,0,0,0,2.83,2.83h4.52A2.83,2.83,0,0,0,21,17.63v-4a2.83,2.83,0,0,0-2.83-2.83Z"/><path class="cls-2" d="M15.89,18.87a3.24,3.24,0,1,1,3.24-3.24A3.24,3.24,0,0,1,15.89,18.87Zm0-5.67a2.43,2.43,0,1,0,2.43,2.43A2.43,2.43,0,0,0,15.89,13.2Z"/><circle class="cls-2" cx="19.08" cy="12.49" r="0.67"/></g></g></svg>