<svg xmlns="http://www.w3.org/2000/svg" xmlns:xlink="http://www.w3.org/1999/xlink" viewBox="0 0 54.45 54.45"><defs><style>.cls-1{fill:url(#Degradado_sin_nombre_100);}.cls-2{fill:#fff;}</style><radialGradient id="Degradado_sin_nombre_100" cx="-8.87" cy="78.24" r="144.67" gradientUnits="userSpaceOnUse"><stop offset="0" stop-color="#f4eb4a"/><stop offset="0.11" stop-color="#f3e84b"/><stop offset="0.17" stop-color="#f2e04d"/><stop offset="0.23" stop-color="#eed150"/><stop offset="0.28" stop-color="#eabc55"/><stop offset="0.33" stop-color="#e4a15c"/><stop offset="0.37" stop-color="#dd8064"/><stop offset="0.41" stop-color="#d5596d"/><stop offset="0.45" stop-color="#cc2e78"/><stop offset="0.46" stop-color="#c82e7b"/><stop offset="0.73" stop-color="#6b2ebe"/><stop offset="0.91" stop-color="#312ee9"/><stop offset="1" stop-color="#1a2ef9"/></radialGradient></defs><title>insta</title><g id="Layer_2" data-name="Layer 2"><g id="Layer_1-2" data-name="Layer 1"><circle class="cls-1" cx="27.22" cy="27.22" r="27.22"/><path class="cls-2" d="M31.79,37.44H23.58A6.61,6.61,0,0,1,17,30.84V23.61A6.61,6.61,0,0,1,23.58,17h8.21a6.61,6.61,0,0,1,6.61,6.61v7.23A6.61,6.61,0,0,1,31.79,37.44Zm-8.21-19a5.14,5.14,0,0,0-5.14,5.14v7.23A5.14,5.14,0,0,0,23.58,36h8.21a5.14,5.14,0,0,0,5.14-5.14V23.61a5.14,5.14,0,0,0-5.14-5.14Z"/><path class="cls-2" d="M27.69,33.1a5.88,5.88,0,1,1,5.88-5.88A5.89,5.89,0,0,1,27.69,33.1Zm0-10.29a4.41,4.41,0,1,0,4.41,4.41A4.42,4.42,0,0,0,27.69,22.81Z"/><circle class="cls-2" cx="33.48" cy="21.52" r="1.22"/></g></g></svg>