<svg xmlns="http://www.w3.org/2000/svg" viewBox="0 0 580 360"><defs><style>.cls-1{fill:#e8e8e8;}.cls-2{fill:#fff;}</style></defs><title>Asset 1</title><g id="Layer_2" data-name="Layer 2"><g id="Layer_1-2" data-name="Layer 1"><rect class="cls-1" width="580" height="360"/><path class="cls-2" d="M284.77,194.51s.55-24.14-16.33-40.25C249,135.67,245.35,138.77,231,133.56a16.37,16.37,0,0,1-6.23-4.41s1.16,14.08,16.65,28.32,24.56,16.92,32.35,24.08S284.77,194.51,284.77,194.51Z"/><path class="cls-2" d="M282.16,203.36s-3-13-14.23-19.73c-9.34-5.59-18.2-8-20.5-9.1a22.42,22.42,0,0,1-4.2-2.68s2.18,9.43,12.88,16.94,13.76,7,18.5,9.63A57.07,57.07,0,0,1,282.16,203.36Z"/><path class="cls-2" d="M294.09,198.39s5.48-28.56-11.85-52.7-31.13-29.62-39.35-39.35a82.92,82.92,0,0,1-12-18.57s-3.89,28.12,13,51.2,28.47,27.59,37.85,38.11A59.89,59.89,0,0,1,294.09,198.39Z"/><path class="cls-2" d="M299.39,179.56A27.23,27.23,0,0,0,308.52,165c2.48-9.73,4.5-18.26,10.5-19.76,11.39-2.85,24.37,5.68,24.37,5.68l-1.23.45s-16.63-5.75-21.11-1c-6,6.37-3.18,11.74-11.76,22.37A22.72,22.72,0,0,1,299.39,179.56Z"/><path class="cls-2" d="M278.43,213.08S276.84,228.64,269,238s-8.93,9-13.09,14.24a46.46,46.46,0,0,0-6.37,11.05s-2.91-14.41,5.27-24.58,13.66-12.65,17-16.27A60.93,60.93,0,0,0,278.43,213.08Z"/><path class="cls-2" d="M275.34,205.12s.5,19.66-14.77,34.49c-12.34,12-16.54,13-21.84,19.63a71.45,71.45,0,0,0-8.26,13,49.06,49.06,0,0,1,9.41-26.79c9.55-13.09,19.07-19,26.6-26.59C274.24,211.05,275.34,205.12,275.34,205.12Z"/><polygon class="cls-2" points="341.14 149.77 355.21 149.36 342.17 151.39 341.14 149.77"/><path class="cls-2" d="M303,210.16c7.6-13.71,8-26.36,17.51-40.15,3.46-5,7.29-10.81,26.86-18a47.59,47.59,0,0,1,6.76-1.75s-14.7,8-19.3,17.53.36,30-24,47.31c-10.86,7.75-28.47,14.5-28.47,14.5A48.8,48.8,0,0,0,303,210.16Z"/><circle class="cls-2" cx="326.25" cy="154.25" r="2.86" transform="translate(-21.08 56.29) rotate(-9.55)"/></g></g></svg>