<svg xmlns="http://www.w3.org/2000/svg" viewBox="0 0 54.45 54.45"><defs><style>.cls-1{fill:#93c3f5;}.cls-2{fill:#fff;}</style></defs><title>twitter</title><g id="Layer_2" data-name="Layer 2"><g id="Layer_1-2" data-name="Layer 1"><circle class="cls-1" cx="27.22" cy="27.22" r="27.22"/><polygon class="cls-2" points="39.5 17.35 39.5 17.35 39.5 17.35 39.5 17.35"/><path class="cls-2" d="M38.46,20a3.52,3.52,0,0,1-1,.13l0-.11a8.38,8.38,0,0,0,2.05-2.34c.08-.26,0-.36,0-.36l-1.71.73-1.43.65h0A5.72,5.72,0,0,0,32.18,17c-3,0-5.4,2.11-5.4,4.72A7,7,0,0,0,27,23.51c0,.14,0-.14,0,0a16.84,16.84,0,0,1-6.57-2c-4.32-2.19-4.59-3.71-4.59-3.71-.68.72-1,3.11-.34,5a6.21,6.21,0,0,0,2,2.27h0a4.59,4.59,0,0,1-1.39-.23,3.06,3.06,0,0,1-1-.48c-.42,1,.42,2.87,1.89,4.18a7.75,7.75,0,0,0,2.41,1.25L17,29.9c-.14,2.37,5,3.77,5,3.77h0a8.33,8.33,0,0,1-5.08,1.85A9.69,9.69,0,0,1,14,35.11a13.24,13.24,0,0,0,9,3.24c9.1-.48,14.24-8.3,14.48-16v0a6.4,6.4,0,0,0,1.34-1.12,9.44,9.44,0,0,0,1.48-2S39,19.88,38.46,20Z"/><path class="cls-2" d="M39.5,17.35c0,.15,0,0,0,0Z"/></g></g></svg>