<svg xmlns="http://www.w3.org/2000/svg" viewBox="0 0 31.27 31.27"><defs><style>.cls-1{fill:#93c3f5;stroke:#fff;stroke-miterlimit:10;stroke-width:1.27px;}.cls-2{fill:#fff;}</style></defs><title>twitter</title><g id="Layer_2" data-name="Layer 2"><g id="Layer_1-2" data-name="Layer 1"><circle class="cls-1" cx="15.63" cy="15.63" r="15"/><polygon class="cls-2" points="22.4 10.19 22.4 10.19 22.4 10.19 22.4 10.19"/><path class="cls-2" d="M21.83,11.67a1.94,1.94,0,0,1-.56.07v-.06a4.62,4.62,0,0,0,1.13-1.29c0-.15,0-.2,0-.2l-.94.4-.79.36h0A3.15,3.15,0,0,0,18.37,10a2.81,2.81,0,0,0-3,2.6,3.87,3.87,0,0,0,.12,1c0,.08,0-.08,0,0a9.28,9.28,0,0,1-3.62-1.07c-2.38-1.21-2.53-2-2.53-2a3.25,3.25,0,0,0-.19,2.74,3.42,3.42,0,0,0,1.08,1.25h0a2.53,2.53,0,0,1-.76-.13,1.69,1.69,0,0,1-.54-.26c-.23.57.23,1.58,1,2.31a4.27,4.27,0,0,0,1.33.69l-1.34,0c-.08,1.3,2.73,2.08,2.73,2.08h0a4.59,4.59,0,0,1-2.8,1A5.34,5.34,0,0,1,8.37,20a7.3,7.3,0,0,0,5,1.78c5-.26,7.84-4.57,8-8.81h0a3.53,3.53,0,0,0,.74-.62,5.2,5.2,0,0,0,.81-1.09S22.14,11.58,21.83,11.67Z"/><path class="cls-2" d="M22.4,10.19c0,.08,0,0,0,0Z"/></g></g></svg>