<?xml version="1.0" standalone="no"?>
<!DOCTYPE svg PUBLIC "-//W3C//DTD SVG 20010904//EN"
 "http://www.w3.org/TR/2001/REC-SVG-20010904/DTD/svg10.dtd">
<svg version="1.0" xmlns="http://www.w3.org/2000/svg"
 width="512.000000pt" height="512.000000pt" viewBox="0 0 512.000000 512.000000"
 preserveAspectRatio="xMidYMid meet">
<metadata>
Created by potrace 1.11, written by Peter Selinger 2001-2013
</metadata>
<g transform="translate(0.000000,512.000000) scale(0.100000,-0.100000)"
fill="#000000" stroke="none">
<path d="M2257 5104 c-1 -1 -58 -5 -127 -8 -69 -4 -145 -9 -170 -11 -158 -15
-164 -16 -260 -30 -14 -2 -45 -7 -70 -10 -52 -7 -85 -13 -85 -15 0 -1 -9 -3
-20 -5 -11 -1 -36 -6 -55 -9 -19 -4 -46 -9 -60 -11 -70 -12 -318 -85 -377
-111 -17 -8 -34 -14 -39 -14 -8 0 -113 -48 -179 -82 -61 -32 -195 -121 -195
-130 0 -4 -6 -8 -13 -8 -35 0 -257 -272 -257 -315 0 -8 -4 -15 -9 -17 -23 -8
-164 -368 -185 -470 -3 -13 -12 -50 -21 -82 -9 -33 -13 -66 -11 -73 3 -7 2
-13 -3 -13 -9 0 -15 -25 -26 -105 -4 -22 -9 -49 -12 -60 -3 -11 -7 -36 -9 -55
-1 -19 -5 -51 -8 -70 -3 -19 -8 -60 -12 -90 -3 -30 -7 -68 -9 -85 -20 -156
-28 -1002 -12 -1185 13 -144 16 -173 22 -222 3 -27 7 -69 10 -95 3 -27 8 -61
12 -78 4 -16 7 -39 9 -50 1 -18 26 -146 38 -200 27 -124 37 -158 83 -300 14
-44 29 -84 33 -90 3 -5 12 -29 20 -52 7 -24 18 -43 23 -43 6 0 8 -3 4 -6 -5
-5 47 -113 88 -182 43 -73 99 -145 154 -199 65 -64 181 -153 199 -153 6 0 12
-4 14 -9 5 -13 229 -119 303 -142 22 -7 45 -16 50 -20 9 -6 50 -18 82 -25 7
-1 34 -9 60 -18 26 -8 59 -18 73 -20 14 -3 43 -10 65 -15 22 -5 52 -12 68 -15
15 -2 35 -7 45 -10 9 -3 35 -7 57 -11 22 -3 65 -10 95 -15 54 -10 82 -13 190
-25 30 -3 69 -7 85 -10 212 -27 992 -28 1295 0 59 5 144 15 170 20 14 2 45 7
70 10 25 4 59 8 75 11 17 3 41 7 55 9 142 21 431 101 545 150 17 7 47 19 68
26 20 7 37 17 37 21 0 4 3 7 8 6 11 -3 140 63 153 78 6 8 16 14 21 14 19 0
154 109 209 169 128 137 238 347 318 606 30 99 70 256 76 305 2 14 4 25 5 25
2 0 8 26 15 70 32 202 35 226 49 385 15 164 18 279 18 610 0 440 -13 674 -46
879 -3 14 -7 44 -11 66 -3 23 -8 52 -10 65 -3 14 -7 36 -10 50 -24 132 -69
310 -85 341 -6 10 -9 19 -6 19 4 0 -26 86 -64 185 -6 17 -11 30 -10 30 4 0
-99 194 -130 243 -127 206 -371 377 -697 488 -43 14 -82 27 -88 28 -5 2 -30 8
-55 15 -25 7 -53 15 -62 17 -10 2 -26 6 -36 8 -9 2 -36 9 -60 16 -24 6 -55 13
-70 15 -15 2 -63 11 -107 19 -44 9 -102 18 -130 22 -27 3 -63 7 -80 10 -70 9
-200 21 -340 30 -81 6 -742 12 -748 8z"/>
</g>
</svg>
